<svg xmlns="http://www.w3.org/2000/svg" viewBox="86.45500091552736 46.537506103515625 402.0899963378906 481.92500015258787"> <g transform="rotate(0 287.50030183114734 256.76619073592985)"><svg xmlns="http://www.w3.org/2000/svg" xmlns:xlink="http://www.w3.org/1999/xlink" version="1.1" id="Layer_1" x="198.45699237060546" y="116.53750610351562" viewBox="690.1751098632812 512.2484130859375 619.6234741210938 975.739013671875" xml:space="preserve" height="280.4573692648284" width="178.0866189210837" preserveAspectRatio="xMinYMin" enable-background="new 0 0 2000 2000" style="overflow: visible;"><polyline class="st0" points="980.1,1100.9 980.1,1469.3 1003.8,1469.3 1003.8,1100.9    " style="fill: #3AD0E6; fill-opacity: 1;"></polyline><polyline class="st0" points="925.6,1146.7 988.5,1195.2 998.2,1182.7 935.3,1134.2    " style="fill: #3AD0E6; fill-opacity: 1;"></polyline><polyline class="st0" points="1048.6,1134.2 985.7,1182.7 995.3,1195.2 1058.2,1146.7    " style="fill: #3AD0E6; fill-opacity: 1;"></polyline><polyline class="st0" points="1058.2,1419.9 995.3,1371.4 985.7,1383.9 1048.6,1432.5    " style="fill: #3AD0E6; fill-opacity: 1;"></polyline><polyline class="st0" points="935.3,1432.5 998.2,1383.9 988.5,1371.4 925.6,1419.9    " style="fill: #3AD0E6; fill-opacity: 1;"></polyline><polyline class="st0" points="1148,1186.6 824,1361.9 835.3,1382.8 1159.3,1207.5    " style="fill: #3AD0E6; fill-opacity: 1;"></polyline><polyline class="st0" points="1081.8,1160.5 1069,1238.9 1084.7,1241.4 1097.4,1163    " style="fill: #3AD0E6; fill-opacity: 1;"></polyline><polyline class="st0" points="1151.3,1262.7 1078.7,1230.5 1072.3,1244.9 1144.9,1277.2    " style="fill: #3AD0E6; fill-opacity: 1;"></polyline><polyline class="st0" points="904.6,1407.2 917.4,1328.8 901.7,1326.2 889,1404.7    " style="fill: #3AD0E6; fill-opacity: 1;"></polyline><polyline class="st0" points="835.1,1305 907.7,1337.2 914.1,1322.8 841.5,1290.5    " style="fill: #3AD0E6; fill-opacity: 1;"></polyline><polyline class="st0" points="824,1207.5 1148,1382.8 1159.3,1361.9 835.3,1186.6    " style="fill: #3AD0E6; fill-opacity: 1;"></polyline><polyline class="st0" points="885.8,1163 898.6,1241.4 914.2,1238.9 901.5,1160.5    " style="fill: #3AD0E6; fill-opacity: 1;"></polyline><polyline class="st0" points="838.3,1277.2 910.9,1244.9 904.5,1230.5 831.9,1262.7    " style="fill: #3AD0E6; fill-opacity: 1;"></polyline><polyline class="st0" points="1094.2,1404.7 1081.5,1326.2 1065.9,1328.8 1078.6,1407.2    " style="fill: #3AD0E6; fill-opacity: 1;"></polyline><polyline class="st0" points="1141.7,1290.5 1069.1,1322.8 1075.5,1337.2 1148.2,1305    " style="fill: #3AD0E6; fill-opacity: 1;"></polyline><path class="st1" d="M1203,1094c-39.8-19.9-82,39.5-94.9,59.8c23.9-67.7,11.1-134.6-13.8-187.8c-21.2-45.4-51.3-80.8-74.8-98.5   c-52.1-39-34.7-108.4-34.7-108.4c-41.2,49.9-71.6,114.9-52.2,223.3c5.2,29,6.5,52.4,5.3,71.2c-5.1,78.9-55.3,77.3-55.3,77.3   c17.6-17.1,25.3-36.7,27-56.4c-66.1,51.5-108.4,104.2-135.2,153.1c-10.2,52.8-5.1,107.8,22.3,158.5c1.4,2.5,2.8,5,4.3,7.5   c12.2,20.3,27.9,37,45.9,50.5c62.9-68,188.3-184.9,339.1-226.8C1169.8,1130,1203,1094,1203,1094z" style="fill: none;"></path><path class="st1" d="M846.7,1444.2c47.2,35.3,110.8,48.1,171.2,41.9c59.7-6.1,115.6-40.6,150.2-92.4c36-53.8,31.9-107.9,19.2-168.3   c-0.6-2.7-1.1-5.4-1.6-8.1C1035,1259.3,909.6,1376.2,846.7,1444.2z" style="fill: none;"></path><path class="st1" d="M909.4,1074.7c4.7-52.8-33.2-105.2-33.2-105.2c-7.1,42.3-16.3,89.9-42.4,125.4   c-28.8,39.2-50.5,85.1-59.7,132.8C801,1178.8,843.4,1126.2,909.4,1074.7z" style="fill: none;"></path><path class="st2" d="M937.8,1053.7c-9.9,7-19.3,14-28.3,21c-1.7,19.6-9.3,39.3-27,56.4C882.5,1131,932.7,1132.6,937.8,1053.7z" style="fill: #f57316;"></path><path class="st2" d="M833.9,1095c26.1-35.5,35.2-83.1,42.4-125.4c0,0,37.8,52.4,33.2,105.2c9-7,18.4-14,28.3-21   c1.2-18.8-0.1-42.1-5.3-71.2c-19.3-108.5,11-173.4,52.2-223.3c0,0-17.4,69.3,34.7,108.4c23.5,17.6,53.5,53.1,74.8,98.5   c44.2-19.9,93.6-39,148.9-57c-99.3-215.2-274.5-400.5-274.5-396.9c0,7-10.8,83.4-214.3,445c-91.9,163.3-72.7,292.4-19.2,381.7   c5.4-32.6,16.9-70.6,39.1-111.1C783.4,1180.1,805.1,1134.2,833.9,1095z" style="fill: #f57316;"></path><path class="st3" d="M1185.7,1217.4c0.5,2.6,1,5.3,1.6,8.1c12.6,60.4,16.8,114.5-19.2,168.3c-34.7,51.8-90.5,86.3-150.2,92.4   c-60.4,6.1-124-6.6-171.2-41.9c-1.6,1.7-3.2,3.4-4.7,5.1c0.6,0.4,1.1,0.7,1.7,1.1c112.9,71.7,258.2,18.5,258.2,18.5   c138.8-64.6,196.7-160.4,206.4-266.7C1266.2,1200.7,1225.1,1206.5,1185.7,1217.4z" style="fill: #ff4621;"></path><path class="st4" d="M1108,1153.9c12.9-20.3,55.1-79.7,94.9-59.8c0,0-33.1,36-17.2,123.4c39.4-10.9,80.4-16.7,122.6-15.2   c8.6-94.2-20.7-196.6-65.2-293.1c-55.3,17.9-104.8,37-148.9,57C1119.1,1019.3,1132,1086.2,1108,1153.9z" style="fill: #ff5117;"></path><path class="st4" d="M800.8,1393.7c-1.5-2.5-2.9-4.9-4.3-7.5c-27.4-50.7-32.5-105.7-22.3-158.5c-22.2,40.5-33.7,78.5-39.1,111.1   c29.5,49.2,69.4,86.3,106.9,110.5c1.5-1.7,3.1-3.4,4.7-5.1C828.6,1430.7,813,1414,800.8,1393.7z" style="fill: #ff5117;"></path></svg></g> <g transform="rotate(0 287.4999990844727 446.41750617980955)"><svg xmlns="http://www.w3.org/2000/svg" y="434.3725061035156" viewBox="1.3700000047683716 6.360000133514404 262.0899963378906 24.09000015258789" x="156.45500091552736" height="24.09000015258789" width="262.0899963378906" style="overflow: visible;"><g fill="#3AD0E6" fill-opacity="1" style=""><path d="M1.37 30.11L1.37 6.69L11.41 6.69L11.41 10.04L5.05 10.04L5.05 16.23L10.10 16.23L10.10 19.57L5.05 19.57L5.05 26.77L11.41 26.77L11.41 30.11L1.37 30.11ZM27.44 30.45Q24.76 30.45 23.35 28.93Q21.95 27.40 21.95 24.56L21.95 24.56L21.95 12.25Q21.95 9.40 23.35 7.88Q24.76 6.36 27.44 6.36L27.44 6.36Q30.11 6.36 31.52 7.88Q32.92 9.40 32.92 12.25L32.92 12.25L32.92 14.25L29.44 14.25L29.44 12.01Q29.44 9.70 27.54 9.70L27.54 9.70Q25.63 9.70 25.63 12.01L25.63 12.01L25.63 24.83Q25.63 27.10 27.54 27.10L27.54 27.10Q29.44 27.10 29.44 24.83L29.44 24.83L29.44 20.24L27.60 20.24L27.60 16.90L32.92 16.90L32.92 24.56Q32.92 27.40 31.52 28.93Q30.11 30.45 27.44 30.45L27.44 30.45ZM58.05 30.11L58.05 6.69L63.30 6.69L65.65 23.45L65.71 23.45L68.06 6.69L73.31 6.69L73.31 30.11L69.83 30.11L69.83 12.38L69.76 12.38L67.09 30.11L64.01 30.11L61.33 12.38L61.26 12.38L61.26 30.11L58.05 30.11ZM84.75 30.11L84.75 6.69L94.79 6.69L94.79 10.04L88.43 10.04L88.43 16.23L93.48 16.23L93.48 19.57L88.43 19.57L88.43 26.77L94.79 26.77L94.79 30.11L84.75 30.11ZM110.78 30.45Q108.14 30.45 106.75 28.94Q105.36 27.44 105.36 24.69L105.36 24.69L105.36 12.11Q105.36 9.37 106.75 7.86Q108.14 6.36 110.78 6.36L110.78 6.36Q113.43 6.36 114.81 7.86Q116.20 9.37 116.20 12.11L116.20 12.11L116.20 14.59L112.72 14.59L112.72 11.88Q112.72 9.70 110.88 9.70L110.88 9.70Q109.04 9.70 109.04 11.88L109.04 11.88L109.04 24.96Q109.04 27.10 110.88 27.10L110.88 27.10Q112.72 27.10 112.72 24.96L112.72 24.96L112.72 21.38L116.20 21.38L116.20 24.69Q116.20 27.44 114.81 28.94Q113.43 30.45 110.78 30.45L110.78 30.45ZM127.11 30.11L127.11 6.69L130.79 6.69L130.79 16.23L134.74 16.23L134.74 6.69L138.42 6.69L138.42 30.11L134.74 30.11L134.74 19.57L130.79 19.57L130.79 30.11L127.11 30.11ZM148.89 30.11L152.71 6.69L157.69 6.69L161.51 30.11L157.83 30.11L157.16 25.46L157.16 25.53L152.97 25.53L152.30 30.11L148.89 30.11ZM153.41 22.35L156.72 22.35L155.08 10.77L155.01 10.77L153.41 22.35ZM171.98 30.11L171.98 6.69L176.60 6.69L180.18 20.71L180.24 20.71L180.24 6.69L183.52 6.69L183.52 30.11L179.74 30.11L175.32 13.02L175.26 13.02L175.26 30.11L171.98 30.11ZM194.96 30.11L194.96 6.69L198.65 6.69L198.65 30.11L194.96 30.11ZM215.27 30.45Q212.63 30.45 211.24 28.94Q209.85 27.44 209.85 24.69L209.85 24.69L209.85 12.11Q209.85 9.37 211.24 7.86Q212.63 6.36 215.27 6.36L215.27 6.36Q217.92 6.36 219.31 7.86Q220.69 9.37 220.69 12.11L220.69 12.11L220.69 14.59L217.21 14.59L217.21 11.88Q217.21 9.70 215.37 9.70L215.37 9.70Q213.53 9.70 213.53 11.88L213.53 11.88L213.53 24.96Q213.53 27.10 215.37 27.10L215.37 27.10Q217.21 27.10 217.21 24.96L217.21 24.96L217.21 21.38L220.69 21.38L220.69 24.69Q220.69 27.44 219.31 28.94Q217.92 30.45 215.27 30.45L215.27 30.45ZM230.63 30.11L234.45 6.69L239.43 6.69L243.25 30.11L239.57 30.11L238.90 25.46L238.90 25.53L234.71 25.53L234.04 30.11L230.63 30.11ZM235.15 22.35L238.46 22.35L236.82 10.77L236.75 10.77L235.15 22.35ZM253.72 30.11L253.72 6.69L257.40 6.69L257.40 26.77L263.46 26.77L263.46 30.11L253.72 30.11Z" transform="translate(0, 0)"></path></g></svg></g></svg>